<!-- Uploaded to: SVG Repo, www.svgrepo.com, Transformed by: SVG Repo Mixer Tools -->
<svg width="800px" height="800px" viewBox="0 0 24 24" fill="none" xmlns="http://www.w3.org/2000/svg">
<path d="M21.9629 2.03677C21.6299 1.70512 21.2344 1.44275 20.7993 1.26481C20.3643 1.08688 19.8983 0.9969 19.4283 1.00008C18.9583 1.00326 18.4936 1.09954 18.061 1.28335C17.6284 1.46716 17.2365 1.73486 16.908 2.07099L2.73061 16.2485L1 23L7.75135 21.2684L21.9287 7.09082C22.2649 6.76243 22.5327 6.37064 22.7166 5.93812C22.9004 5.50559 22.9967 5.04091 22.9999 4.57094C23.0031 4.10096 22.9131 3.63502 22.7351 3.20004C22.5571 2.76507 22.2946 2.36969 21.9629 2.03677V2.03677Z" stroke="#71717A" stroke-width="1.5" stroke-linecap="round" stroke-linejoin="round"/>
</svg>