<svg xmlns="http://www.w3.org/2000/svg" version="1.1" xmlns:xlink="http://www.w3.org/1999/xlink" xmlns:svgjs="http://svgjs.dev/svgjs" width="1000" height="414" viewBox="0 0 1000 414"><g transform="matrix(1,0,0,1,-0.6060604894219068,0.03908373648755514)"><svg viewBox="0 0 396 164" data-background-color="#8dbdff" preserveAspectRatio="xMidYMid meet" height="414" width="1000" xmlns="http://www.w3.org/2000/svg" xmlns:xlink="http://www.w3.org/1999/xlink"><g id="tight-bounds" transform="matrix(1,0,0,1,0.2400000461889249,-0.015479490326768541)"><svg viewBox="0 0 395.52 164.03096046062936" height="164.03096046062936" width="395.52"><g><svg viewBox="0 0 395.52 164.03096046062936" height="164.03096046062936" width="395.52"><g><svg viewBox="0 0 395.52 164.03096046062936" height="164.03096046062936" width="395.52"><g><svg viewBox="0 0 395.52 164.03096046062936" height="164.03096046062936" width="395.52"><g><svg viewBox="0 0 395.52 105.13463589620949" height="105.13463589620949" width="395.52"><g transform="matrix(1,0,0,1,0,0)"><svg width="395.52" viewBox="0.9500000476837158 -40.599998474121094 204.16000366210938 54.269996643066406" height="105.13463589620949" data-palette-color="#374151"><path d="M4.13-3.17L4.13-36.21 0.95-36.82 0.95-38.79 8.11-40.6 8.11-21.56Q10.5-23.24 12.71-23.99 14.92-24.73 16.91-24.73 18.9-24.73 20.8-23.82 22.71-22.9 24.02-21.29L24.02-21.29Q26.78-17.92 26.78-12.67L26.78-12.67Q26.78-7.23 23.54-3.52L23.54-3.52Q20.02 0.56 14.01 0.56L14.01 0.56Q10.16 0.56 6.76-1.29L6.76-1.29Q5.25-2.1 4.13-3.17L4.13-3.17ZM15.16-21.56L15.16-21.56Q11.87-21.56 8.11-19.04L8.11-19.04 8.11-5.1Q10.21-2.29 14.77-2.29L14.77-2.29Q18.29-2.29 20.48-4.98L20.48-4.98Q22.53-7.47 22.53-11.21L22.53-11.21Q22.53-18.09 18.51-20.65L18.51-20.65Q17.11-21.56 15.16-21.56ZM37.35-40.6L37.35-2.59 40.48-2.03 40.48 0 30.22 0 30.22-2.03 33.4-2.59 33.4-36.21 30.22-36.82 30.22-38.79 37.35-40.6ZM44.16-11.87L44.16-11.87Q44.16-14.67 45.12-17.09 46.09-19.51 47.75-21.19L47.75-21.19Q51.17-24.73 56.17-24.73L56.17-24.73Q61.98-24.73 65.25-21.29L65.25-21.29Q68.35-17.99 68.35-12.67L68.35-12.67Q68.35-6.74 64.84-3.03L64.84-3.03Q61.42 0.56 56.39 0.56L56.39 0.56Q50.65 0.56 47.31-2.98L47.31-2.98Q44.16-6.3 44.16-11.87ZM50.41-19.15Q49.43-17.9 48.93-16.21 48.43-14.53 48.43-12.56 48.43-10.6 48.88-8.73 49.34-6.86 50.29-5.42L50.29-5.42Q52.39-2.29 56.34-2.29L56.34-2.29Q60.05-2.29 62.1-4.74L62.1-4.74Q64.13-7.13 64.13-11.21L64.13-11.21Q64.13-18.43 60-20.92L60-20.92Q58.47-21.85 56.37-21.85 54.27-21.85 52.83-21.13 51.39-20.41 50.41-19.15ZM96.62-20.58L93.45-20.58Q94.6-18.73 94.6-15.97L94.6-15.97Q94.6-12.08 90.69-9.08L90.69-9.08Q88.98-7.76 86.69-6.88L86.69-6.88 82.95-5.47Q80.27-4.47 79.91-4.09 79.56-3.71 79.56-3.48 79.56-3.25 79.8-3.03 80.05-2.81 80.61-2.61L80.61-2.61Q81.95-2.15 84.37-2.15 86.78-2.15 88.88-1.89 90.98-1.64 92.6-0.93L92.6-0.93Q96.11 0.66 96.11 4.49L96.11 4.49Q96.11 7.08 94.08 9.3L94.08 9.3Q91.28 12.35 86.13 13.38L86.13 13.38Q84.59 13.67 82.73 13.67 80.88 13.67 78.95 13.28 77.02 12.89 75.58 12.06L75.58 12.06Q72.53 10.33 72.53 6.86L72.53 6.86Q72.53 4.17 74.8 2.73L74.8 2.73 76.38 1.78Q77.04 1.44 77.86 1.27 78.68 1.1 79.51 0.88L79.51 0.88Q76.87 0.37 75.87-1.22L75.87-1.22Q75.53-1.78 75.53-2.4 75.53-3.03 75.77-3.47 76.02-3.91 76.65-4.35 77.29-4.79 78.41-5.32L78.41-5.32 81.32-6.69Q79.02-7.13 77.02-8.81L77.02-8.81Q74.26-11.13 74.26-15.36L74.26-15.36Q74.26-19.41 77.82-22.22L77.82-22.22Q80.97-24.73 84.76-24.73 88.54-24.73 91.3-22.95L91.3-22.95Q93.06-24.17 97.11-24.68L97.11-24.68 97.77-23.93 96.62-20.58ZM76.95 5.46Q76.8 6.13 76.8 7.15 76.8 8.18 77.56 9.05 78.31 9.91 79.48 10.38L79.48 10.38Q81.39 11.13 83.79 11.13 86.2 11.13 87.47 10.74 88.74 10.35 89.69 9.62L89.69 9.62Q91.84 8.01 91.84 5.42L91.84 5.42Q91.84 2.17 87.25 1.76L87.25 1.76Q85.91 1.64 84.44 1.64L84.44 1.64Q80.24 1.64 77.78 4.1L77.78 4.1Q77.09 4.79 76.95 5.46ZM78.8-18.95L78.8-18.95Q78.29-17.75 78.29-16.03 78.29-14.31 78.8-13.04 79.31-11.77 80.19-10.89L80.19-10.89Q81.97-9.11 84.78-9.11L84.78-9.11Q88.44-9.11 90.01-12.18L90.01-12.18Q90.59-13.33 90.59-15.03 90.59-16.72 90.08-18.04 89.57-19.36 88.69-20.29L88.69-20.29Q86.86-22.22 84.1-22.22L84.1-22.22Q80.19-22.22 78.8-18.95ZM114.44-2.34L114.44-2.34Q116.25-2.34 117.73-2.7 119.2-3.05 120.28-3.81L120.28-3.81Q122.57-5.4 122.57-8.45L122.57-8.45Q122.57-11.04 120.89-12.7L120.89-12.7Q119.11-14.4 115.11-16.15 111.12-17.9 109.04-19.27 106.95-20.65 105.75-22.07L105.75-22.07Q103.58-24.56 103.58-28.1L103.58-28.1Q103.58-32.2 107.12-34.86L107.12-34.86Q110.41-37.38 115.1-37.38L115.1-37.38Q118.79-37.38 122.48-36.04L122.48-36.04Q124.01-35.42 125.26-34.69L125.26-34.69 124.4-28.17 122.35-28.17Q122.35-31.54 120.52-33.07 118.69-34.59 115.22-34.59L115.22-34.59Q110.44-34.59 108.68-31.47L108.68-31.47Q108.12-30.44 108.12-29.17 108.12-27.91 108.49-26.89 108.85-25.88 109.9-24.9L109.9-24.9Q111.95-22.92 117.62-20.56L117.62-20.56Q125.53-17.19 126.85-12.6L126.85-12.6Q127.24-11.16 127.24-9.53 127.24-7.91 126.69-6.46 126.14-5 125.19-3.87 124.23-2.73 122.98-1.9 121.72-1.07 120.3-0.54L120.3-0.54Q114.03 1.9 107.12-0.93L107.12-0.93Q104.6-1.98 102.68-3.49L102.68-3.49 103.7-10.5 105.78-10.5Q105.78-5.59 108.88-3.66L108.88-3.66Q111-2.34 114.44-2.34ZM143.47 0.56L143.47 0.56Q140.32 0.56 137.51-0.63L137.51-0.63 137.51 11.08 140.61 11.65 140.61 13.67 130.36 13.67 130.36 11.65 133.53 11.08 133.53-20.53 130.36-21.12 130.36-23.1 137.51-24.73 137.51-21.51Q141.78-24.73 145.96-24.73L145.96-24.73Q150.43-24.73 153.28-21.44L153.28-21.44Q156.19-18.09 156.19-12.67L156.19-12.67Q156.19-7.28 152.97-3.54L152.97-3.54Q149.45 0.56 143.47 0.56ZM137.51-19.04L137.51-19.04 137.51-5.1Q139.61-2.29 144.18-2.29L144.18-2.29Q147.69-2.29 149.89-5.08L149.89-5.08Q151.94-7.64 151.94-11.25L151.94-11.25Q151.94-15.72 150.09-18.51L150.09-18.51Q148.08-21.56 144.64-21.56 141.2-21.56 137.51-19.04ZM160.95-11.87L160.95-11.87Q160.95-14.67 161.91-17.09 162.88-19.51 164.54-21.19L164.54-21.19Q167.95-24.73 172.96-24.73L172.96-24.73Q178.77-24.73 182.04-21.29L182.04-21.29Q185.14-17.99 185.14-12.67L185.14-12.67Q185.14-6.74 181.63-3.03L181.63-3.03Q178.21 0.56 173.18 0.56L173.18 0.56Q167.44 0.56 164.1-2.98L164.1-2.98Q160.95-6.3 160.95-11.87ZM167.2-19.15Q166.22-17.9 165.72-16.21 165.22-14.53 165.22-12.56 165.22-10.6 165.67-8.73 166.12-6.86 167.07-5.42L167.07-5.42Q169.17-2.29 173.13-2.29L173.13-2.29Q176.84-2.29 178.89-4.74L178.89-4.74Q180.92-7.13 180.92-11.21L180.92-11.21Q180.92-18.43 176.79-20.92L176.79-20.92Q175.25-21.85 173.15-21.85 171.05-21.85 169.61-21.13 168.17-20.41 167.2-19.15ZM195.81-21.29L195.81-7.47Q195.81-2.59 199.76-2.59L199.76-2.59Q201.84-2.59 203.79-4.3L203.79-4.3 205.11-2.69Q203.03-0.98 201.28-0.21 199.52 0.56 198.18 0.56 196.83 0.56 195.58-0.02 194.32-0.61 193.49-1.71L193.49-1.71Q191.85-3.83 191.85-7.74L191.85-7.74 191.85-21.29 188.75-21.29 188.75-23.41 191.85-24.15 191.85-27.42 194.73-30.3 195.81-30.3 195.81-24.15 203.86-24.15 203.86-21.29 195.81-21.29Z" opacity="1" transform="matrix(1,0,0,1,0,0)" fill="#374151" class="undefined-text-0" data-fill-palette-color="primary" id="text-0"></path></svg></g></svg></g><g transform="matrix(1,0,0,1,0,129.95440020004304)"><svg viewBox="0 0 395.52 34.07656026058632" height="34.07656026058632" width="395.52"><g transform="matrix(1,0,0,1,0,0)"><svg width="395.52" viewBox="0.49000000953674316 -37.9900016784668 449.6600036621094 38.75" height="34.07656026058632" data-palette-color="#374151"><path d="M0.49-21.09L0.49-25.29 8.5-25.29 8.5-21.09 7.32-21.09 11.74-4.96 17.8-25.29 21.61-25.29 27.39-5 32.01-21.09 30.54-21.09 30.54-25.29 38.55-25.29 38.55-21.09 36.38-21.09 29.44 0.39 25.24 0.39 19.51-19.8 13.79 0.39 9.55 0.39 2.66-21.09 0.49-21.09ZM60.67-25.44L60.67-19.95 56.03-19.95 56.03-21.51Q55.22-21.51 54.38-21.2 53.54-20.9 52.81-20.28 52.07-19.65 51.52-18.69 50.97-17.72 50.73-16.41L50.73-16.41 50.73-4.2 55.03-4.2 55.03 0 42.48 0 42.48-4.2 45.97-4.2 45.99-21.09 42.48-21.09 42.48-25.29 50.56-25.29 50.56-21.8Q51-22.58 51.55-23.25 52.1-23.93 52.77-24.43 53.44-24.93 54.26-25.21 55.08-25.49 56.03-25.49L56.03-25.49Q57.3-25.49 58.42-25.49 59.54-25.49 60.67-25.44L60.67-25.44ZM65.72-21.09L65.72-25.29 73.97-25.29 73.97-4.2 77.78-4.2 77.78 0 65.77 0 65.77-4.2 69.38-4.2 69.38-21.09 65.72-21.09ZM68.53-34.25L68.53-34.25Q68.53-34.89 68.78-35.46 69.04-36.04 69.47-36.46 69.89-36.89 70.48-37.15 71.06-37.4 71.72-37.4L71.72-37.4Q72.36-37.4 72.93-37.15 73.51-36.89 73.93-36.46 74.36-36.04 74.62-35.46 74.87-34.89 74.87-34.25L74.87-34.25Q74.87-33.59 74.62-33.01 74.36-32.42 73.93-31.97 73.51-31.52 72.93-31.26 72.36-31.01 71.72-31.01L71.72-31.01Q71.06-31.01 70.48-31.26 69.89-31.52 69.47-31.97 69.04-32.42 68.78-33.01 68.53-33.59 68.53-34.25ZM89.27-33.45L89.27-25.29 95.21-25.29 95.21-21.61 89.23-21.61 89.15-7.01Q89.15-5.52 89.49-4.59 89.84-3.66 90.59-3.31 91.35-2.95 92.3-2.95L92.3-2.95Q93.33-2.95 94.11-3.14 94.89-3.32 95.82-3.76L95.82-3.76 96.87-0.71Q95.7-0.1 94.4 0.26 93.11 0.61 91.35 0.61L91.35 0.61Q89.69 0.61 88.46 0.21 87.22-0.2 86.38-1.15 85.54-2.1 85.12-3.7 84.71-5.3 84.71-7.69L84.71-7.69 84.78-21.61 80.75-21.61 80.75-25.29 84.83-25.29 84.83-31.35 89.27-33.45ZM123.06-12.06L104.85-12.06Q104.85-10.99 105.01-10.1 105.17-9.2 105.46-8.4L105.46-8.4Q106.36-5.96 108.35-4.72 110.34-3.49 112.86-3.49L112.86-3.49Q114.83-3.49 116.7-4.04 118.57-4.59 120.62-5.76L120.62-5.76 122.45-2.66Q119.96-0.95 117.45-0.12 114.93 0.71 112.22 0.71L112.22 0.71Q109.66 0.71 107.47-0.15 105.29-1 103.71-2.69 102.14-4.37 101.25-6.88 100.36-9.4 100.36-12.74L100.36-12.74Q100.36-15.45 101.11-17.86 101.87-20.26 103.37-22.06 104.87-23.85 107.09-24.9 109.32-25.95 112.27-25.95L112.27-25.95Q115.13-25.95 117.04-25.09 118.96-24.22 120.17-22.79 121.38-21.36 122-19.53 122.62-17.7 122.87-15.8L122.87-15.8Q122.99-14.87 123.02-13.92 123.06-12.96 123.06-12.06L123.06-12.06ZM111.95-22.14L111.95-22.14Q110.37-22.14 109.18-21.69 108-21.24 107.17-20.4 106.34-19.56 105.84-18.33 105.34-17.11 105.09-15.6L105.09-15.6 118.2-15.6Q118.11-17.02 117.75-18.21 117.4-19.41 116.66-20.29 115.93-21.17 114.78-21.66 113.64-22.14 111.95-22.14ZM126.79 0Q126.79 0 126.79 0ZM148.52-29.39L148.52-25.29 154.38-25.29 154.38-21.61 148.52-21.61 148.52-4.2 152.48-4.2 152.48 0 140.17 0 140.17-4.2 143.98-4.2 143.98-21.61 139.8-21.61 139.8-25.29 143.98-25.29 143.98-29.25Q144.03-31.45 144.61-33.08 145.2-34.72 146.27-35.82 147.35-36.91 148.86-37.45 150.38-37.99 152.23-37.99L152.23-37.99Q153.53-37.99 154.55-37.87 155.58-37.74 156.38-37.54 157.19-37.33 157.81-37.08 158.43-36.84 158.92-36.6L158.92-36.6 157.53-33.35Q156.75-33.76 155.49-34.06 154.23-34.35 152.87-34.35L152.87-34.35Q150.84-34.35 149.68-33.09 148.52-31.84 148.52-29.39L148.52-29.39ZM158.01-12.65L158.01-12.65Q158.04-15.65 158.98-18.12 159.92-20.58 161.6-22.35 163.29-24.12 165.61-25.07 167.93-26.03 170.71-26.03L170.71-26.03Q173.52-26.03 175.85-25.07 178.18-24.12 179.84-22.38 181.5-20.63 182.43-18.16 183.36-15.7 183.36-12.7L183.36-12.7Q183.36-9.74 182.43-7.26 181.5-4.79 179.84-3 178.18-1.22 175.85-0.23 173.52 0.76 170.71 0.76L170.71 0.76Q167.85 0.76 165.53-0.22 163.21-1.2 161.55-2.97 159.89-4.74 158.97-7.2 158.04-9.67 158.01-12.65ZM162.82-12.65L162.82-12.65Q162.82-10.47 163.45-8.72 164.07-6.96 165.16-5.73 166.24-4.49 167.67-3.82 169.1-3.15 170.71-3.15L170.71-3.15Q172.39-3.15 173.85-3.81 175.3-4.47 176.37-5.7 177.45-6.93 178.06-8.69 178.67-10.45 178.67-12.65L178.67-12.65Q178.67-14.94 178.06-16.72 177.45-18.51 176.39-19.7 175.32-20.9 173.86-21.51 172.39-22.12 170.71-22.12L170.71-22.12Q169.1-22.12 167.67-21.51 166.24-20.9 165.16-19.7 164.07-18.51 163.45-16.72 162.82-14.94 162.82-12.65ZM206.45-25.44L206.45-19.95 201.81-19.95 201.81-21.51Q201.01-21.51 200.16-21.2 199.32-20.9 198.59-20.28 197.86-19.65 197.31-18.69 196.76-17.72 196.51-16.41L196.51-16.41 196.51-4.2 200.81-4.2 200.81 0 188.26 0 188.26-4.2 191.75-4.2 191.78-21.09 188.26-21.09 188.26-25.29 196.34-25.29 196.34-21.8Q196.78-22.58 197.33-23.25 197.88-23.93 198.55-24.43 199.22-24.93 200.04-25.21 200.86-25.49 201.81-25.49L201.81-25.49Q203.08-25.49 204.2-25.49 205.33-25.49 206.45-25.44L206.45-25.44ZM209.25 0Q209.25 0 209.25 0ZM229.96-33.45L229.96-25.29 235.89-25.29 235.89-21.61 229.91-21.61 229.83-7.01Q229.83-5.52 230.18-4.59 230.52-3.66 231.27-3.31 232.03-2.95 232.98-2.95L232.98-2.95Q234.01-2.95 234.79-3.14 235.57-3.32 236.5-3.76L236.5-3.76 237.55-0.71Q236.38-0.1 235.08 0.26 233.79 0.61 232.03 0.61L232.03 0.61Q230.37 0.61 229.14 0.21 227.9-0.2 227.06-1.15 226.22-2.1 225.81-3.7 225.39-5.3 225.39-7.69L225.39-7.69 225.46-21.61 221.43-21.61 221.43-25.29 225.51-25.29 225.51-31.35 229.96-33.45ZM241.57-33.79L241.57-37.99 249.58-37.99 249.58-22.51 249.73-22.51Q250.41-23.19 251.3-23.79 252.19-24.39 253.17-24.83 254.15-25.27 255.2-25.51 256.25-25.76 257.39-25.76L257.39-25.76Q259.42-25.76 261.06-25.2 262.69-24.63 263.84-23.49 264.99-22.34 265.61-20.54 266.23-18.75 266.23-16.31L266.23-16.31 266.23-4.2 270.04-4.2 270.04 0 258.03 0 258.03-4.2 261.5-4.2 261.5-15.75Q261.5-18.65 260.02-20.15 258.54-21.66 255.78-21.66L255.78-21.66Q254.22-21.66 252.61-20.91 251-20.17 249.58-19.04L249.58-19.04 249.58-4.2 253.24-4.2 253.24 0 241.23 0 241.23-4.2 245.04-4.2 245.04-33.79 241.57-33.79ZM296.8-12.06L278.58-12.06Q278.58-10.99 278.74-10.1 278.9-9.2 279.19-8.4L279.19-8.4Q280.1-5.96 282.09-4.72 284.08-3.49 286.59-3.49L286.59-3.49Q288.57-3.49 290.44-4.04 292.3-4.59 294.35-5.76L294.35-5.76 296.19-2.66Q293.7-0.95 291.18-0.12 288.67 0.71 285.96 0.71L285.96 0.71Q283.39 0.71 281.21-0.15 279.02-1 277.45-2.69 275.87-4.37 274.98-6.88 274.09-9.4 274.09-12.74L274.09-12.74Q274.09-15.45 274.85-17.86 275.6-20.26 277.11-22.06 278.61-23.85 280.83-24.9 283.05-25.95 286.01-25.95L286.01-25.95Q288.86-25.95 290.78-25.09 292.69-24.22 293.9-22.79 295.11-21.36 295.73-19.53 296.36-17.7 296.6-15.8L296.6-15.8Q296.72-14.87 296.76-13.92 296.8-12.96 296.8-12.06L296.8-12.06ZM285.69-22.14L285.69-22.14Q284.1-22.14 282.92-21.69 281.73-21.24 280.9-20.4 280.07-19.56 279.57-18.33 279.07-17.11 278.83-15.6L278.83-15.6 291.94-15.6Q291.84-17.02 291.49-18.21 291.13-19.41 290.4-20.29 289.67-21.17 288.52-21.66 287.37-22.14 285.69-22.14ZM300.53 0Q300.53 0 300.53 0ZM311.95-21.09L311.95-25.29 319.96-25.29 319.96-21.09 318.79-21.09 323.21-4.96 329.26-25.29 333.07-25.29 338.86-5 343.47-21.09 342.01-21.09 342.01-25.29 350.01-25.29 350.01-21.09 347.84-21.09 340.91 0.39 336.71 0.39 330.97-19.8 325.26 0.39 321.01 0.39 314.13-21.09 311.95-21.09ZM353.6-12.65L353.6-12.65Q353.62-15.65 354.56-18.12 355.5-20.58 357.19-22.35 358.87-24.12 361.19-25.07 363.51-26.03 366.3-26.03L366.3-26.03Q369.1-26.03 371.43-25.07 373.77-24.12 375.43-22.38 377.09-20.63 378.01-18.16 378.94-15.7 378.94-12.7L378.94-12.7Q378.94-9.74 378.01-7.26 377.09-4.79 375.43-3 373.77-1.22 371.43-0.23 369.1 0.76 366.3 0.76L366.3 0.76Q363.44 0.76 361.12-0.22 358.8-1.2 357.14-2.97 355.48-4.74 354.55-7.2 353.62-9.67 353.6-12.65ZM358.41-12.65L358.41-12.65Q358.41-10.47 359.03-8.72 359.65-6.96 360.74-5.73 361.83-4.49 363.26-3.82 364.68-3.15 366.3-3.15L366.3-3.15Q367.98-3.15 369.43-3.81 370.89-4.47 371.96-5.7 373.03-6.93 373.64-8.69 374.25-10.45 374.25-12.65L374.25-12.65Q374.25-14.94 373.64-16.72 373.03-18.51 371.97-19.7 370.91-20.9 369.44-21.51 367.98-22.12 366.3-22.12L366.3-22.12Q364.68-22.12 363.26-21.51 361.83-20.9 360.74-19.7 359.65-18.51 359.03-16.72 358.41-14.94 358.41-12.65ZM402.04-25.44L402.04-19.95 397.4-19.95 397.4-21.51Q396.59-21.51 395.75-21.2 394.91-20.9 394.17-20.28 393.44-19.65 392.89-18.69 392.34-17.72 392.1-16.41L392.1-16.41 392.1-4.2 396.4-4.2 396.4 0 383.85 0 383.85-4.2 387.34-4.2 387.36-21.09 383.85-21.09 383.85-25.29 391.93-25.29 391.93-21.8Q392.37-22.58 392.92-23.25 393.47-23.93 394.14-24.43 394.81-24.93 395.63-25.21 396.44-25.49 397.4-25.49L397.4-25.49Q398.67-25.49 399.79-25.49 400.91-25.49 402.04-25.44L402.04-25.44ZM407.09-33.79L407.09-37.99 415.29-37.99 415.29-4.2 419.1-4.2 419.1 0 407.09 0 407.09-4.2 410.75-4.2 410.75-33.79 407.09-33.79ZM438.46-33.79L438.46-37.99 446.44-37.99 446.44-4.2 450.15-4.2 450.15 0 441.9 0 441.9-2.08Q440.68-0.83 439.07-0.13 437.46 0.56 435.4 0.56L435.4 0.56Q432.84 0.56 430.63-0.33 428.42-1.22 426.8-2.94 425.17-4.66 424.26-7.17 423.34-9.67 423.34-12.89L423.34-12.89Q423.34-15.82 424.22-18.23 425.1-20.63 426.71-22.33 428.32-24.02 430.59-24.96 432.87-25.9 435.65-25.9L435.65-25.9Q437.48-25.9 438.99-25.5 440.51-25.1 441.9-24.1L441.9-24.1 441.9-33.79 438.46-33.79ZM435.99-3.39L435.99-3.39Q438.02-3.39 439.38-3.99 440.75-4.59 441.9-5.79L441.9-5.79 441.9-19.95Q440.68-20.97 439.09-21.44 437.5-21.9 435.84-21.9L435.84-21.9Q434.23-21.9 432.82-21.3 431.4-20.7 430.34-19.56 429.28-18.41 428.67-16.75 428.06-15.09 428.06-12.94L428.06-12.94Q428.06-10.6 428.64-8.81 429.23-7.03 430.28-5.82 431.33-4.61 432.79-4 434.26-3.39 435.99-3.39Z" opacity="1" transform="matrix(1,0,0,1,0,0)" fill="#374151" class="undefined-text-1" data-fill-palette-color="secondary" id="text-1"></path></svg></g></svg></g></svg></g></svg></g><g></g></svg></g><defs></defs></svg><rect width="395.52" height="164.03096046062936" fill="none" stroke="none" visibility="hidden"></rect></g></svg></g></svg>